<?xml version="1.0" standalone="no"?>
<!DOCTYPE svg PUBLIC "-//W3C//DTD SVG 20010904//EN"
 "http://www.w3.org/TR/2001/REC-SVG-20010904/DTD/svg10.dtd">
<svg version="1.0" xmlns="http://www.w3.org/2000/svg"
 width="2964.000000pt" height="2964.000000pt" viewBox="0 0 2964.000000 2964.000000"
 preserveAspectRatio="xMidYMid meet">
<metadata>
Created by potrace 1.11, written by Peter Selinger 2001-2013
</metadata>
<g transform="translate(0.000000,2964.000000) scale(0.100000,-0.100000)"
fill="#000000" stroke="none">
<path d="M3020 28320 l0 -1310 -1310 0 -1310 0 0 -12190 0 -12190 1310 0 1310
0 0 -1310 0 -1310 11795 0 11795 0 0 1310 0 1310 1310 0 1310 0 0 12190 0
12190 -1310 0 -1310 0 0 1310 0 1310 -11795 0 -11795 0 0 -1310z m8680 -4482
l3325 -1814 3 -2432 2 -2432 -610 0 -610 0 -2 2093 -3 2093 -2727 -1487 -2727
-1488 -3340 1822 c-1837 1002 -3337 1825 -3333 1828 26 24 6670 3639 6682
3635 8 -2 1511 -820 3340 -1818z m7610 837 l0 -155 160 0 160 0 0 -160 0 -160
155 0 155 0 0 -1420 0 -1420 -315 0 -315 0 0 630 0 630 -630 0 -630 0 0 -630
0 -630 -320 0 -320 0 0 1420 0 1420 160 0 160 0 0 160 0 160 160 0 160 0 0
155 0 155 630 0 630 0 0 -155z m2210 -1265 l0 -1420 635 0 635 0 0 1420 0
1420 315 0 315 0 0 -1580 0 -1580 -160 0 -160 0 0 -155 0 -155 -945 0 -945 0
0 155 0 155 -160 0 -160 0 0 1580 0 1580 315 0 315 0 0 -1420z m5060 1105 l0
-315 -475 0 -475 0 0 -1420 0 -1420 -315 0 -315 0 0 1420 0 1420 -475 0 -475
0 0 315 0 315 1265 0 1265 0 0 -315z m-8220 -4065 l0 -160 160 0 160 0 0 -315
0 -315 -315 0 -315 0 0 155 0 155 -475 0 -475 0 0 -1105 0 -1105 473 2 472 3
3 158 3 157 314 0 315 0 0 -320 0 -320 -160 0 -160 0 0 -155 0 -155 -790 0
-790 0 0 155 0 155 -155 0 -155 0 0 1425 0 1425 155 0 155 0 0 160 0 160 790
0 790 0 0 -160z m3160 -160 l0 -320 -630 0 -630 0 0 -315 0 -315 630 0 630 0
0 -315 0 -315 -630 0 -630 0 0 -475 0 -475 630 0 630 0 0 -315 0 -315 -945 0
-945 0 0 1740 0 1740 945 0 945 0 0 -320z m1900 0 l0 -320 -160 0 -160 0 2
-1102 3 -1103 158 -3 157 -3 0 -314 0 -315 -630 0 -630 0 0 315 0 315 155 0
155 0 0 1105 0 1105 -155 0 -155 0 0 320 0 320 630 0 630 0 0 -320z m3160 0
l0 -320 -475 0 -475 0 0 -1420 0 -1420 -315 0 -315 0 0 1420 0 1420 -475 0
-475 0 0 320 0 320 1265 0 1265 0 0 -320z m-20326 -1984 l2099 -1145 41 24
c23 13 955 521 2071 1130 1117 609 2054 1121 2083 1137 l52 29 0 -1218 0
-1218 -2125 -1159 -2124 -1158 -2125 1158 -2125 1159 -1 1218 0 1218 28 -15
c15 -8 972 -530 2126 -1160z m6516 -8386 l0 -5790 -1455 0 -1455 0 0 1440 0
1440 -2165 0 -2165 0 -2 728 -3 727 -727 3 -728 2 0 3585 c0 1972 2 3585 4
3585 3 0 962 -523 2133 -1162 1170 -638 2135 -1163 2143 -1165 8 -2 1003 536
2210 1196 1207 659 2198 1200 2203 1200 4 1 7 -2604 7 -5789z m4332 2898 l3
-2893 858 -3 857 -2 0 2895 0 2895 1455 0 1455 0 0 -2895 0 -2895 855 0 855 0
0 2895 0 2895 1455 0 1455 0 0 -3620 0 -3620 -725 0 -725 0 0 -730 0 -730
-3897 -2 -3898 -3 -3 -1437 -2 -1438 -1455 0 -1455 0 0 5790 0 5790 1455 0
1455 0 2 -2892z"/>
<path d="M18368 24043 l-3 -158 -157 -3 -158 -3 0 -309 0 -310 630 0 630 0 0
310 0 309 -157 3 -158 3 -3 158 -3 157 -309 0 -309 0 -3 -157z"/>
<path d="M6940 11360 l0 -1440 1460 0 1460 0 0 1440 0 1440 -1460 0 -1460 0 0
-1440z"/>
</g>
</svg>
